# xmcd
#
# Track frame offsets: 
#        150
#        22805
#        59175
#        108752
#        142065
#
# Disc length: 2346 seconds
#
# Revision: 2
# Processed by: cddbd v1.5.2PL0 Copyright (c) Steve Scherf et al.
# Submitted via: ExactAudioCopyFreeDBPlugin 1.0
#
DISCID=41092805
DTITLE=Mariah Carey - Honey [CDS)
DYEAR=1997
DGENRE=R&B
TTITLE0=Honey (LP Version)
TTITLE1=Honey (Classic Mix)
TTITLE2=Honey (Morales Club Dub)
TTITLE3=Honey (Mo' Honey Dub)
TTITLE4=Honey (Classic Instrumental)
EXTD=
EXTT0=
EXTT1=
EXTT2=
EXTT3=
EXTT4=
PLAYORDER=
